 <svg  version="1.0" xmlns="http://www.w3.org/2000/svg"  width="450.000000pt" height="425.000000pt" viewBox="0 0 450.000000 425.000000"  preserveAspectRatio="xMidYMid meet">  <g transform="translate(0.000000,425.000000) scale(0.050000,-0.050000)" fill="#aca3cc" stroke="none"> <path d="M0 5931 c0 -2032 5 -2570 25 -2577 20 -7 20 -14 0 -35 -20 -21 -25 -384 -25 -1673 l0 -1646 4500 0 4499 0 1 1520 c0 1212 -5 1519 -25 1515 -14 -3 -25 15 -25 41 0 25 -13 54 -30 64 -16 11 -22 20 -12 20 11 0 35 -15 55 -33 42 -37 50 -9 16 54 -14 27 -14 39 0 39 33 0 29 2854 -4 2867 -20 8 -20 10 0 11 20 2 25 256 25 1202 l0 1200 -308 0 c-228 0 -311 -7 -319 -25 -7 -19 -10 -19 -11 -1 -3 33 -1534 38 -1573 5 -18 -15 -29 -15 -39 0 -9 15 -267 21 -812 21 -506 -1 -795 -9 -788 -21 7 -10 32 -19 55 -19 33 0 38 -5 19 -24 -18 -18 -34 -13 -71 21 -65 61 -1494 66 -1551 6 -18 -19 -25 -25 -17 -14 8 10 15 26 15 35 0 9 -352 16 -782 16 -731 -2 -780 -4 -755 -36 25 -30 22 -30 -28 1 -49 32 -137 35 -1044 34 l-991 -1 0 -2567z m8120 2520 c0 -16 20 -49 45 -73 l45 -43 -45 23 c-61 32 -110 122 -65 122 11 0 20 -13 20 -29z m-1710 -251 c32 -33 49 -60 39 -60 -11 0 -31 18 -44 40 -14 22 -44 40 -66 40 -23 0 -36 9 -29 20 20 32 39 24 100 -40z m2007 -291 c107 -89 103 53 98 -3683 l-5 -3503 -41 -57 c-101 -137 243 -127 -4009 -121 -3657 5 -3832 7 -3883 41 -126 85 -118 -180 -112 3704 l5 3533 75 69 74 68 3869 0 3869 0 60 -51z m481 -1816 c39 -42 40 -49 11 -61 -46 -17 -76 5 -49 38 17 20 13 32 -14 48 -20 11 -26 21 -14 21 11 1 41 -20 66 -46z m-135 -3246 c21 -18 37 -43 36 -55 0 -12 -9 -6 -21 13 -11 19 -43 35 -70 35 -29 0 -45 9 -38 20 18 29 52 25 93 -13z m-8499 -690 c5 -13 1 -78 -7 -145 -8 -67 -10 -140 -5 -163 8 -33 -1 -41 -51 -45 -74 -6 -86 48 -16 74 l44 16 -44 15 c-63 19 -58 71 7 71 46 0 50 4 26 32 -17 20 -29 24 -34 10 -16 -49 -39 -17 -39 57 0 56 10 82 33 88 59 15 79 13 86 -10z m-4 -417 c0 -31 -13 -40 -60 -40 -47 0 -60 9 -60 40 0 31 13 40 60 40 47 0 60 -9 60 -40z m0 -101 c0 -44 -58 -53 -96 -15 -36 36 -30 46 36 50 48 4 60 -4 60 -35z m-4 -101 c4 -24 -9 -32 -50 -30 -37 1 -58 14 -62 38 -6 30 3 36 49 30 32 -3 59 -20 63 -38z m4 -144 c-1 -55 -7 -75 -18 -57 -13 20 -21 21 -32 4 -8 -13 2 -36 23 -52 47 -36 0 -77 -54 -49 -57 31 -53 235 6 245 67 11 75 1 75 -91z m40 -234 c0 -11 -40 -20 -90 -20 -50 0 -90 9 -90 20 0 11 40 20 90 20 50 0 90 -9 90 -20z m-42 -218 c-1 -145 -5 -159 -44 -169 -47 -13 -90 15 -57 35 12 7 17 26 11 41 -6 15 -1 33 10 40 23 14 -13 111 -41 111 -9 0 -17 9 -17 20 0 11 14 20 31 20 19 0 26 9 17 23 -10 16 -4 20 18 11 18 -7 38 -4 45 7 23 39 28 16 27 -139z m-69 -204 c24 39 71 24 69 -23 0 -25 -6 -34 -11 -21 -8 19 -18 19 -48 1 -44 -28 -94 5 -69 45 12 19 18 19 30 0 11 -17 19 -18 29 -2z m65 -335 c-1 -117 4 -224 12 -237 23 -37 -11 -43 -82 -13 -64 27 -71 67 -13 67 42 0 36 36 -11 65 -46 29 -52 55 -12 55 16 0 27 21 27 50 0 29 -11 50 -27 50 -36 0 -35 16 3 54 17 17 26 45 20 61 -15 39 24 86 59 72 20 -8 26 -61 24 -224z m2857 -162 c-24 -38 -57 -13 -60 45 -2 53 -2 54 36 16 21 -21 31 -48 24 -61z"/> <path d="M6105 7890 l9 -49 -72 40 c-71 39 -100 40 -1482 32 -775 -4 -1423 -7 -1440 -7 -16 0 -367 1 -780 4 -596 3 -759 -2 -794 -23 -59 -36 -106 -34 -106 3 0 17 -9 30 -20 30 -11 0 -20 -15 -20 -33 0 -31 -3 -31 -36 0 -27 24 -42 27 -59 10 -16 -16 -32 -17 -49 -3 -31 23 -520 29 -506 6 5 -9 -22 -13 -60 -9 -40 3 -66 -2 -59 -12 6 -11 3 -19 -8 -19 -11 0 -38 -30 -61 -67 -49 -80 -62 -353 -17 -353 19 -1 19 -4 1 -16 -15 -9 -23 -71 -22 -170 1 -153 21 -212 46 -134 7 22 22 35 32 29 13 -8 12 -22 -2 -40 -17 -19 -17 -38 -1 -67 21 -39 18 -40 -30 -22 -68 26 -82 25 -53 -4 30 -30 32 -63 2 -45 -15 10 -18 -1 -7 -33 8 -27 13 -169 11 -318 -11 -749 -11 -1000 2 -1000 8 0 30 -28 48 -63 28 -55 28 -61 1 -51 -81 31 -94 -99 -13 -140 28 -14 40 -26 28 -26 -65 -1 -110 -1175 -48 -1250 9 -11 15 -45 12 -75 -4 -30 0 -50 9 -45 8 6 20 -4 27 -22 18 -48 15 -52 -28 -38 -38 12 -40 3 -41 -234 -4 -1164 -1 -1194 97 -1125 28 20 46 23 55 8 19 -32 0 -43 -80 -45 -88 -2 -88 -10 -2 -93 38 -37 64 -76 57 -87 -6 -11 -24 4 -40 33 -15 30 -44 53 -67 53 -52 0 -50 -32 3 -46 25 -7 36 -21 28 -34 -8 -13 -27 -18 -42 -12 -15 6 -28 1 -28 -11 0 -11 18 -25 40 -31 33 -9 36 -17 16 -53 -12 -24 -21 -47 -20 -53 2 -5 -6 -43 -17 -82 -29 -109 -15 -1265 16 -1302 14 -16 19 -35 12 -42 -7 -7 -1 -27 13 -44 14 -16 18 -30 10 -30 -8 0 7 -17 33 -38 51 -41 1137 -60 1137 -20 0 29 57 20 75 -11 12 -22 36 -27 90 -18 41 7 70 19 65 27 -22 36 78 37 104 1 27 -39 89 -36 145 7 21 16 25 16 15 -1 -20 -33 1244 -34 1284 -1 24 19 26 18 13 -3 -13 -22 2 -26 76 -20 51 4 93 2 93 -5 0 -6 38 -6 85 1 47 7 114 7 149 0 36 -8 69 -9 74 -4 6 5 175 12 376 15 443 6 435 6 490 55 l44 40 -4 -55 c-2 -31 7 -59 19 -64 15 -5 20 7 13 33 -8 32 -4 39 22 29 17 -7 32 -25 32 -40 0 -15 9 -28 20 -28 32 0 23 39 -20 94 -22 28 -33 60 -26 72 8 13 21 -1 31 -32 13 -39 32 -54 66 -54 27 0 57 -17 69 -40 17 -32 34 -38 86 -27 56 11 1359 14 2274 5 171 -1 335 4 365 12 36 9 55 7 55 -8 0 -12 14 -22 31 -22 24 0 26 8 10 39 -25 47 -26 61 -4 61 9 0 27 -22 39 -50 24 -53 80 -66 119 -27 32 32 -5 97 -56 97 -40 0 -53 29 -22 48 9 6 42 -16 73 -48 31 -32 63 -54 71 -50 8 5 26 -4 39 -20 51 -62 187 7 209 105 26 123 28 146 10 134 -26 -15 -24 4 4 49 37 59 7 109 -57 93 -46 -12 -50 -9 -28 17 14 17 20 42 12 56 -7 14 -1 12 14 -5 48 -57 101 -66 85 -14 -8 25 -23 50 -32 57 -11 6 -10 35 3 68 12 31 21 174 21 318 0 257 -1 317 -8 682 l-3 180 -54 1 c-30 0 -62 8 -70 18 -9 9 -2 12 14 6 90 -30 137 89 51 128 -28 13 -45 31 -38 42 6 10 37 -7 69 -37 57 -55 89 -27 33 29 -20 20 -19 28 2 41 18 11 20 22 7 30 -12 7 -27 3 -34 -8 -14 -23 -50 -8 -50 21 0 11 12 19 28 19 35 0 61 122 30 141 -17 11 -17 16 0 22 15 5 23 96 23 277 3 813 -3 877 -68 822 -20 -16 -26 -11 -25 23 2 37 -9 45 -61 45 -49 0 -59 6 -43 25 28 34 56 32 99 -7 22 -21 49 -27 71 -18 33 13 32 16 -9 31 -25 10 -45 32 -45 48 0 17 -10 31 -21 31 -12 0 -16 9 -9 20 7 11 34 -5 62 -35 48 -52 50 -53 37 -9 -7 25 -2 59 12 75 19 23 17 29 -11 29 -25 0 -30 9 -18 35 9 19 19 159 22 310 3 151 6 299 7 330 11 327 -4 582 -35 594 -25 9 -27 18 -9 36 33 33 29 114 -7 128 -40 15 -38 65 5 113 31 34 36 99 40 621 6 618 2 684 -46 665 -35 -13 -132 27 -118 50 5 8 -5 24 -23 34 -28 16 -29 20 -2 30 20 8 34 -4 42 -35 22 -86 132 -86 132 -1 0 26 11 50 24 55 15 5 17 18 5 36 -10 16 -15 47 -12 68 6 34 3 36 -26 11 -19 -15 -30 -43 -25 -62 6 -23 0 -32 -18 -25 -22 9 -22 20 3 68 16 32 28 65 26 73 -2 9 7 42 20 73 22 54 20 223 -4 359 -11 66 -50 118 -75 103 -10 -6 -18 -1 -18 11 0 12 -9 17 -20 10 -11 -7 -20 -3 -20 9 0 11 -10 21 -22 21 -12 0 -17 -14 -10 -31 6 -18 3 -26 -8 -19 -11 7 -20 25 -20 41 0 42 -1976 34 -2026 -8 -36 -30 -74 -15 -74 28 0 16 -10 29 -22 29 -13 0 -19 -21 -13 -50z m-4724 -138 c-50 -22 -75 -3 -44 34 12 15 16 36 8 46 -8 9 6 0 32 -22 46 -39 46 -39 4 -58z m3061 -81 c2 10 2 26 0 34 -1 8 12 15 29 15 27 0 26 -7 -5 -47 -31 -41 -39 -44 -58 -17 -16 22 -26 24 -36 7 -22 -36 -55 -5 -41 39 8 27 2 38 -21 38 -18 0 -26 9 -19 22 8 13 39 -3 81 -44 38 -36 69 -57 70 -47z m-3253 -22 c16 -65 113 -64 130 1 6 22 27 41 46 43 19 1 30 -5 24 -15 -18 -29 18 -68 66 -70 25 0 45 5 45 12 0 7 41 10 92 5 73 -6 89 -2 76 18 -12 21 -9 22 13 5 18 -13 121 -21 264 -20 131 1 235 -6 235 -16 0 -10 6 -13 14 -5 31 31 106 -74 106 -149 0 -86 22 -109 78 -79 28 15 41 13 49 -7 7 -18 -1 -24 -25 -18 -84 22 -103 -118 -19 -145 22 -7 36 -17 31 -21 -5 -5 -32 0 -61 11 -43 16 -53 14 -53 -10 0 -17 13 -35 28 -41 29 -11 20 -88 -10 -88 -10 0 -18 -211 -18 -469 0 -598 98 -531 -774 -531 -860 0 -766 -64 -766 521 0 332 -6 438 -23 427 -17 -10 -19 -3 -10 22 10 25 -3 54 -40 94 l-55 57 44 30 c27 19 44 53 44 85 0 30 9 67 19 83 13 20 11 35 -5 45 -19 12 -18 15 0 16 14 0 20 12 15 26 -15 39 82 134 136 134 26 0 56 8 66 17 39 36 124 44 136 13 15 -40 73 -39 73 1 0 17 -9 26 -20 19 -22 -14 -28 16 -7 37 25 25 43 13 56 -38z m6228 -49 c14 0 20 9 13 20 -7 11 5 20 27 20 22 0 55 6 75 13 23 9 30 6 21 -9 -15 -24 163 -21 203 4 12 7 27 4 33 -7 7 -10 50 -16 97 -12 46 3 97 -4 113 -16 22 -18 25 -17 12 4 -23 39 49 -2 97 -55 34 -37 38 -74 36 -342 l-3 -300 55 11 c52 11 52 10 15 -20 -21 -17 -45 -31 -52 -31 -7 0 -14 -61 -16 -135 -13 -489 -26 -635 -58 -660 -47 -36 -1882 -36 -1932 0 -36 27 -39 77 -63 985 -10 404 9 524 85 531 8 1 38 7 65 13 48 11 644 14 846 4 71 -3 110 6 150 37 l54 41 51 -48 c28 -26 62 -48 76 -48z m-3439 1 c46 -13 91 -40 104 -65 12 -23 45 -61 72 -85 44 -37 47 -46 20 -68 -26 -22 -29 -19 -20 16 7 26 -1 45 -23 53 -44 17 -67 -9 -30 -35 22 -15 23 -23 4 -30 -19 -8 -25 -148 -25 -607 0 -597 -9 -684 -69 -707 -86 -33 -1395 -15 -1433 19 -35 32 -38 71 -38 590 0 538 -1 556 -40 568 -22 7 -40 26 -40 41 0 16 18 29 40 29 22 0 40 10 40 21 0 12 -8 16 -18 10 -9 -6 -28 2 -41 17 -16 20 -16 32 -2 42 31 19 5 50 -30 37 -16 -6 -29 -3 -29 8 0 42 30 43 74 2 49 -47 70 -9 22 39 -35 35 47 89 171 114 131 27 1185 19 1291 -9z m561 8 c34 22 202 26 214 6 6 -9 21 -9 34 0 29 22 914 20 948 -2 14 -8 34 -10 44 -4 10 7 40 -16 65 -50 l46 -62 -7 -659 c-5 -467 0 -658 15 -658 40 0 23 -29 -44 -75 -92 -63 -1398 -71 -1471 -10 -40 34 -41 57 -47 692 -6 662 -10 707 -59 689 -41 -16 -117 19 -117 53 0 17 -10 31 -21 31 -12 0 -15 10 -7 23 9 14 24 4 41 -30 22 -42 41 -51 98 -49 39 1 64 8 55 14 -35 26 -21 82 21 84 61 2 115 13 128 27 7 6 19 1 26 -11 8 -13 25 -17 38 -9z m3720 -600 c57 -57 64 -73 42 -94 -22 -20 -24 -20 -12 1 24 43 -27 85 -86 70 -49 -12 -51 -10 -24 22 25 30 25 37 0 53 -16 10 -20 18 -9 18 11 0 51 -31 89 -70z m-5548 -1006 c36 -29 41 -43 23 -61 -18 -18 -18 -27 3 -40 38 -24 728 -21 758 3 17 13 25 13 25 -1 0 -34 381 -25 438 10 79 50 173 -58 144 -166 -12 -45 -21 -338 -22 -697 -1 -515 -6 -627 -31 -665 l-30 -46 -708 0 c-617 0 -712 4 -740 31 -28 29 -48 744 -31 1164 3 97 -14 165 -43 165 -10 0 -13 -10 -5 -23 8 -14 5 -18 -8 -10 -35 22 -20 93 20 93 20 0 36 4 36 8 0 5 6 25 14 45 12 34 10 34 -25 8 -31 -23 -34 -23 -14 -1 14 15 25 46 25 68 0 38 1 38 27 3 22 -30 34 -32 69 -13 102 54 85 162 -20 132 -36 -10 -39 -8 -16 8 42 30 57 27 111 -15z m3081 -88 c-5 -21 15 -59 49 -93 53 -53 57 -68 53 -191 -3 -74 2 -139 11 -144 8 -5 6 -26 -5 -47 -12 -22 -20 -237 -20 -524 0 -571 -1 -576 -159 -576 -68 0 -100 -9 -108 -30 -7 -16 -21 -30 -32 -30 -12 0 -21 14 -21 30 0 26 -78 30 -579 30 -648 0 -641 -2 -641 140 0 43 -11 81 -25 87 -19 8 -19 14 2 29 22 15 27 115 23 517 -8 725 -9 700 52 740 46 31 110 34 529 32 263 -2 504 5 538 15 36 10 65 10 72 -1 16 -27 149 -23 149 4 0 14 -22 18 -65 9 -60 -12 -62 -11 -31 21 31 31 37 31 86 -1 30 -20 68 -29 87 -22 28 12 27 16 -12 31 -25 10 -45 26 -45 36 0 11 22 9 51 -4 33 -15 47 -35 41 -58z m-4694 37 c18 -21 13 -30 -22 -39 -53 -14 -65 -5 -49 36 15 38 41 40 71 3z m-111 -42 c13 -34 104 -41 123 -10 7 11 26 20 42 20 17 0 25 -8 19 -18 -6 -11 204 -19 512 -21 539 -3 585 -9 608 -86 7 -25 40 -73 73 -108 34 -36 51 -68 39 -75 -11 -7 -26 5 -32 26 -7 21 -26 43 -42 50 -34 12 -40 -19 -7 -39 15 -10 15 -20 0 -35 -36 -36 -25 -58 20 -43 l42 13 -42 -42 c-41 -41 -42 -60 -42 -585 0 -478 -4 -548 -33 -580 -31 -35 -81 -37 -739 -37 l-706 0 -31 44 c-26 38 -31 127 -31 572 0 551 -11 632 -76 580 -30 -23 -31 -22 -8 7 14 18 24 40 22 50 -7 42 4 67 32 67 17 0 30 9 30 20 0 11 -10 20 -22 20 -16 0 -15 10 2 30 33 40 10 63 -30 30 -26 -22 -29 -20 -18 7 7 18 23 33 37 33 13 0 45 22 70 49 26 28 53 46 62 41 8 -5 26 4 39 20 32 38 73 38 87 0z m6146 -9 c32 12 63 12 89 -2 21 -11 48 -15 59 -9 10 7 136 13 280 13 195 0 256 5 246 23 -11 19 -8 19 14 0 16 -12 65 -28 109 -33 196 -25 218 -51 213 -251 -3 -109 24 -172 62 -149 12 8 15 4 7 -9 -19 -32 23 -104 60 -104 17 0 24 -10 17 -22 -8 -13 -38 2 -79 42 l-66 64 -2 -343 c-3 -453 -19 -723 -45 -755 -34 -41 -1922 -38 -1956 3 -26 32 -35 199 -49 937 l-9 456 64 62 63 63 339 -2 c186 0 360 7 385 17 29 10 46 10 46 -2 0 -11 10 -20 21 -20 12 0 16 8 10 18 -6 11 4 22 24 26 19 4 38 -4 41 -17 5 -18 20 -20 57 -6z m1191 -375 c31 -29 56 -63 56 -74 0 -12 -14 -1 -31 24 -17 24 -49 44 -70 44 -22 0 -39 14 -39 30 0 43 20 37 84 -24z m-7418 -1286 c30 -24 65 -35 87 -28 30 10 31 8 8 -9 -17 -11 -24 -27 -16 -35 8 -7 29 -1 48 14 19 15 29 18 21 6 -9 -16 125 -22 483 -22 273 1 504 -4 514 -10 18 -10 29 -9 122 11 28 7 48 -1 56 -21 9 -23 28 -28 76 -19 54 10 60 8 33 -12 -17 -14 -31 -52 -31 -85 -5 -1323 -5 -1348 -47 -1390 -53 -53 -1381 -63 -1451 -12 -37 27 -40 64 -49 655 l-10 627 -45 1 c-56 0 -61 37 -6 45 58 10 51 35 -19 64 -70 29 -71 34 -21 99 l38 50 -4 -69 c-2 -54 5 -70 37 -76 32 -6 35 -3 15 18 -34 35 -32 65 4 51 35 -13 61 18 31 37 -36 22 -65 91 -32 78 15 -6 33 -28 38 -49 6 -22 21 -39 33 -39 15 0 19 16 11 40 -9 29 -4 40 21 40 22 0 29 -11 21 -32 -8 -20 -3 -28 13 -23 48 16 38 72 -19 103 -31 17 -46 31 -34 31 13 1 46 -17 74 -39z m4533 -89 c36 -23 101 10 101 50 0 22 9 39 20 39 11 0 20 -18 20 -40 0 -41 5 -42 157 -48 89 -3 251 -232 164 -232 -6 0 -13 -263 -16 -585 -5 -635 -10 -685 -65 -715 -68 -36 -1383 -26 -1436 11 -44 31 -44 37 -45 555 -1 288 -8 585 -16 660 -9 75 -8 141 1 146 9 6 16 26 16 46 0 112 47 124 511 130 199 3 371 11 382 18 12 7 38 0 59 -16 50 -38 88 -37 88 1 0 17 -9 26 -20 19 -11 -7 -20 -4 -20 7 0 36 50 37 64 2 7 -19 23 -41 35 -48z m1571 -4 c17 -6 55 4 84 24 33 22 57 27 61 14 4 -12 40 -18 86 -12 50 5 79 1 79 -13 0 -13 11 -16 25 -7 34 22 515 24 515 2 0 -10 11 -10 25 -2 37 23 75 26 75 5 0 -10 27 -18 60 -18 62 0 122 -65 135 -146 8 -52 48 -101 63 -78 17 26 129 51 112 25 -7 -12 -24 -21 -39 -21 -32 0 -56 -55 -38 -87 7 -13 6 -16 -3 -8 -9 8 -31 3 -48 -10 -28 -22 -29 -21 -5 9 14 19 21 44 14 55 -17 27 -71 27 -71 1 0 -11 11 -20 24 -20 19 0 19 -5 0 -24 -33 -33 -30 -76 6 -76 34 0 32 -36 -3 -74 -16 -17 -25 -133 -27 -341 -7 -571 -14 -668 -55 -709 -34 -34 -91 -36 -949 -36 -1026 -1 -1015 -2 -1018 125 -8 326 -13 390 -35 430 -21 39 -20 45 11 46 34 0 34 2 1 27 -38 29 -49 63 -12 40 16 -10 19 87 9 371 -14 415 5 501 108 501 21 0 43 8 49 18 14 23 171 20 171 -4 0 -12 10 -12 25 0 27 20 349 19 369 -1 24 -25 51 -13 29 13 -16 19 -11 26 21 29 23 2 52 13 63 24 16 16 26 10 37 -19 8 -23 29 -46 46 -53z m-4634 42 c24 -17 43 -47 43 -65 -1 -25 -6 -22 -20 11 -12 30 -34 45 -70 45 -29 0 -46 9 -39 20 17 27 34 25 86 -11z m1580 -49 c24 0 45 11 46 25 1 15 6 13 13 -5 6 -16 33 -65 60 -107 26 -43 40 -72 29 -65 -12 7 -22 -188 -25 -533 -3 -300 -7 -572 -10 -605 -2 -33 -5 -89 -7 -124 -4 -128 7 -126 -751 -126 -625 0 -690 3 -728 35 -43 37 -75 1323 -36 1440 24 68 593 148 593 83 0 -7 38 -6 85 3 47 9 87 9 90 1 8 -20 128 -2 160 23 17 14 25 12 25 -4 0 -33 261 -20 298 15 23 22 34 19 71 -15 24 -23 63 -41 87 -41z m2034 -940 c27 -30 31 -47 15 -63 -32 -32 -73 -1 -45 33 17 20 13 32 -14 48 -20 11 -26 21 -14 21 12 1 38 -17 58 -39z m-599 -720 c16 0 29 -7 29 -16 0 -19 60 -25 236 -24 110 0 195 -44 219 -114 19 -56 13 -1213 -7 -1341 -16 -103 -31 -105 -774 -105 -830 0 -750 -34 -758 331 -6 258 -6 259 -56 269 -35 7 -52 25 -55 58 -6 48 -5 48 50 -10 l55 -58 7 48 c3 26 -6 55 -20 65 -22 14 -22 20 -1 34 21 13 25 92 18 361 -11 473 -23 462 486 473 149 3 290 6 314 8 24 1 54 17 66 36 16 27 20 28 18 5 -5 -54 2 -80 21 -80 11 0 15 14 8 30 -15 39 21 39 53 0 13 -16 33 -24 44 -18 11 7 7 26 -10 45 -49 57 -62 95 -16 48 24 -25 57 -45 73 -45z m-1460 -51 c166 -25 183 -178 139 -1269 -13 -307 61 -280 -767 -280 -807 0 -763 -11 -763 196 0 99 -8 136 -35 158 -33 28 -33 29 1 18 33 -10 35 15 32 408 -1 231 -8 420 -16 420 -12 0 -14 195 -2 220 3 6 3 17 2 26 -4 22 81 92 112 93 13 1 33 17 44 36 12 19 21 25 21 13 1 -27 835 -34 852 -6 6 10 21 13 31 7 11 -7 32 -2 46 10 21 17 30 13 38 -19 14 -55 62 -50 94 10 26 48 27 48 54 11 16 -24 62 -44 117 -52z m2929 41 c-20 -24 -19 -30 6 -30 18 0 37 9 45 21 8 13 21 14 36 2 13 -11 244 -19 538 -19 484 0 520 -3 585 -42 39 -22 82 -36 97 -30 17 6 32 -7 38 -31 13 -47 8 -49 -49 -19 -32 17 -37 16 -25 -3 32 -52 0 -1372 -34 -1409 -43 -46 -1911 -45 -1956 1 -12 12 -25 172 -31 380 -5 197 -15 499 -21 669 -15 442 13 485 319 480 89 -2 167 -1 172 1 20 7 251 54 277 56 23 3 23 -3 3 -27z m-4664 -50 c100 0 103 -19 105 -770 1 -628 -2 -698 -33 -732 -52 -57 -1423 -59 -1474 -2 -35 39 -58 1319 -26 1419 34 104 94 113 707 111 347 -1 570 5 577 17 7 12 26 7 47 -12 19 -17 62 -31 97 -31z m-276 -1740 c25 -46 6 -51 -45 -12 -43 32 -45 52 -6 52 16 0 39 -18 51 -40z"/> <path d="M813 7547 c-36 -37 -14 -1425 23 -1445 61 -32 1347 -29 1392 4 45 33 76 1332 33 1412 -22 42 -1406 70 -1448 29z m803 -491 c17 -17 24 -121 24 -341 l0 -318 -65 7 -65 6 -4 250 c-2 138 -5 257 -5 266 -1 8 -27 2 -59 -15 -51 -26 -61 -26 -82 -1 -65 78 183 219 256 146z"/> <path d="M701 7211 c-26 -31 3 -111 40 -111 25 0 24 27 -3 54 -15 15 -15 25 0 35 26 16 29 51 4 51 -9 0 -28 -13 -41 -29z"/> <path d="M6154 7547 c-39 -38 -15 -1425 25 -1446 51 -28 1798 -29 1870 -1 l52 19 -6 716 -5 715 -961 5 c-529 3 -968 -1 -975 -8z m1705 -336 c55 -66 5 -71 -739 -71 -744 0 -794 5 -739 71 20 24 137 29 739 29 602 0 719 -5 739 -29z m-1283 -295 c39 -39 28 -52 -40 -49 -53 2 -68 -7 -83 -51 -26 -70 11 -116 91 -116 80 0 63 -48 -19 -56 -132 -13 -195 148 -96 247 53 53 109 63 147 25z m792 12 c51 -20 40 -71 -13 -58 -68 16 -99 -15 -91 -92 5 -62 12 -68 72 -68 77 0 83 -56 8 -67 -151 -21 -207 232 -64 283 43 15 53 16 88 2z m-535 -133 c39 -137 39 -141 10 -151 -11 -3 -25 12 -33 35 -17 55 -102 56 -116 1 -18 -69 -61 -47 -48 25 40 239 133 283 187 90z m202 40 l43 -85 1 85 c1 62 9 85 31 85 24 0 30 -29 30 -140 0 -171 -37 -188 -105 -47 l-45 92 -10 -86 c-17 -150 -60 -122 -60 39 0 174 45 196 115 57z m605 65 c0 -11 -27 -20 -60 -20 -40 0 -60 -10 -60 -30 0 -19 19 -30 50 -30 31 0 50 -11 50 -30 0 -19 -19 -30 -50 -30 -31 0 -50 -11 -50 -30 0 -20 20 -30 62 -30 40 0 58 -9 53 -25 -5 -14 -42 -25 -87 -25 l-78 0 -6 135 -6 135 91 0 c50 0 91 -9 91 -20z m100 -90 c0 -109 1 -110 60 -110 41 0 60 -10 60 -31 0 -24 -19 -30 -85 -25 l-85 6 -6 135 c-5 111 0 135 25 135 24 0 31 -24 31 -110z"/> <path d="M2584 7536 c-47 -47 -33 -1367 15 -1415 49 -49 1342 -64 1407 -16 32 23 34 81 29 735 l-5 710 -711 5 c-536 4 -716 0 -735 -19z m1210 -379 c25 -24 45 -63 44 -85 -3 -41 -3 -41 -12 -2 -6 22 -34 60 -63 84 -29 25 -45 45 -34 45 10 1 39 -19 65 -42z m-374 -107 c148 -77 116 -262 -73 -425 -136 -118 -135 -122 35 -110 l141 11 -6 -58 -7 -58 -204 -6 c-309 -8 -320 38 -68 284 204 197 150 374 -76 253 -33 -17 -44 -14 -60 15 -53 100 175 168 318 94z m-510 -770 c27 -30 31 -47 15 -63 -31 -31 -73 -1 -45 33 26 31 -7 61 -43 38 -14 -9 -18 -5 -9 9 20 33 41 29 82 -17z"/> <path d="M4384 7536 c-48 -48 -33 -1367 16 -1416 50 -50 1340 -63 1406 -15 32 23 34 85 29 735 l-5 710 -711 5 c-536 4 -716 0 -735 -19z m1133 -250 c-28 -34 -47 -17 -48 45 -1 45 1 46 35 15 28 -25 31 -38 13 -60z m-311 -229 c99 -53 130 -199 56 -265 -37 -34 -37 -35 10 -82 176 -176 -156 -427 -368 -279 -85 60 -43 147 48 100 74 -39 147 -39 204 0 94 66 13 179 -120 166 -59 -6 -67 -1 -72 48 -6 51 -1 55 66 55 146 0 200 86 97 153 -48 32 -59 32 -139 4 -93 -34 -108 -30 -108 25 0 84 216 133 326 75z"/> <path d="M2580 5800 c-36 -68 -25 -1344 12 -1397 36 -52 1374 -69 1424 -19 34 34 34 1398 0 1432 -48 48 -1410 33 -1436 -16z m930 -440 c0 -48 -5 -50 -145 -56 l-145 -6 0 -70 c0 -69 2 -71 60 -58 207 45 345 -194 204 -352 -98 -110 -404 -94 -404 20 0 60 32 68 128 32 96 -37 153 -22 191 47 50 95 -50 174 -173 137 -108 -34 -133 5 -120 184 14 180 18 184 234 177 167 -5 170 -6 170 -55z"/> <path d="M4380 5799 c-37 -69 -18 -1395 20 -1419 47 -30 1386 -26 1416 4 34 34 34 1398 0 1432 -49 49 -1410 33 -1436 -17z m875 -389 c98 -28 59 -114 -45 -99 -109 16 -175 -19 -207 -112 -20 -57 -19 -61 12 -48 206 91 387 -51 326 -255 -32 -108 -119 -161 -247 -150 -319 28 -323 599 -4 675 60 15 82 13 165 -11z"/> <path d="M5035 5058 c-66 -38 -40 -170 40 -200 72 -27 145 24 145 101 0 101 -94 152 -185 99z"/> <path d="M825 5827 c-35 -15 -36 -1408 -1 -1443 28 -28 1368 -35 1412 -7 36 23 60 1356 26 1420 -22 41 -1340 69 -1437 30z m875 -617 c10 -197 11 -199 60 -200 77 0 72 -97 -5 -106 -50 -6 -55 -14 -55 -87 0 -117 -106 -111 -116 7 l-6 74 -154 6 c-215 8 -217 40 -20 314 141 197 148 203 216 198 l70 -6 10 -200z"/> <path d="M1490 5157 c-106 -164 -106 -157 -2 -157 l92 0 0 108 c0 60 5 123 12 140 28 73 -28 23 -102 -91z"/> <path d="M6164 5816 c-34 -34 -34 -1398 0 -1432 35 -35 1877 -35 1912 0 34 34 34 1398 0 1432 -35 35 -1877 35 -1912 0z m1706 -366 c0 -39 -15 -40 -739 -45 -738 -5 -789 -1 -764 64 21 55 1503 37 1503 -19z m-1162 -242 c60 -23 37 -68 -27 -55 -50 10 -63 4 -82 -38 -36 -78 7 -143 83 -128 63 13 85 -32 26 -55 -56 -22 -89 -13 -139 37 -111 111 -4 294 139 239z m136 -103 c6 -109 9 -115 61 -121 90 -11 63 -47 -30 -40 l-85 6 -6 108 c-7 115 3 162 34 162 11 0 23 -52 26 -115z m336 85 c0 -20 -20 -30 -60 -30 -40 0 -60 -10 -60 -30 0 -20 20 -30 60 -30 33 0 60 -9 60 -20 0 -11 -27 -20 -60 -20 -47 0 -60 -9 -60 -40 0 -31 13 -40 60 -40 33 0 60 -9 60 -20 0 -11 -40 -20 -90 -20 l-90 0 0 127 c0 69 6 132 13 140 28 28 167 14 167 -17z m195 5 c44 -55 90 -238 67 -261 -18 -18 -26 -12 -35 21 -15 59 -97 61 -128 3 -15 -29 -29 -36 -43 -22 -34 34 58 284 104 284 8 0 24 -11 35 -25z m286 4 c44 -23 54 -130 14 -144 -18 -7 -14 -21 14 -53 27 -30 32 -49 17 -64 -16 -16 -35 -4 -68 40 -55 75 -78 79 -78 12 0 -31 -11 -50 -30 -50 -39 0 -44 251 -5 267 42 17 96 14 136 -8z m-205 -565 l43 -45 -51 -5 c-42 -3 -48 3 -38 34 8 27 1 42 -24 48 -28 7 -29 10 -4 12 17 1 50 -19 74 -44z"/> <path d="M7334 5128 c-26 -26 -15 -88 16 -88 33 0 35 11 13 66 -8 20 -21 30 -29 22z"/> <path d="M7560 5120 c0 -27 13 -40 40 -40 27 0 40 13 40 40 0 27 -13 40 -40 40 -27 0 -40 -13 -40 -40z"/> <path d="M834 4095 c-32 -23 -34 -85 -29 -735 l5 -710 709 -5 c390 -3 716 2 726 12 37 37 44 1356 7 1412 l-33 51 -676 0 c-509 0 -684 -6 -709 -25z m923 -481 c13 -72 -242 -613 -290 -614 -99 -1 -95 44 31 308 l119 252 -158 0 c-161 0 -203 27 -140 91 37 38 430 4 438 -37z m-591 -630 l54 -56 -55 3 c-74 5 -73 5 -45 39 23 27 14 39 -25 32 -8 -1 -15 7 -15 18 0 35 31 22 86 -36z"/> <path d="M4393 4083 c-43 -48 -51 -1351 -8 -1409 23 -32 85 -34 735 -29 l710 5 5 710 c5 650 3 712 -29 735 -62 46 -1371 35 -1413 -12z m869 -416 c84 -84 106 -225 67 -420 -33 -164 -308 -265 -418 -155 -58 58 -16 89 99 75 97 -11 112 -7 158 40 61 60 73 147 17 121 -157 -75 -325 19 -325 180 0 210 252 310 402 159z"/> <path d="M5045 3618 c-53 -20 -77 -99 -46 -156 54 -101 238 -54 211 55 -24 96 -82 132 -165 101z"/> <path d="M6175 4098 c-44 -25 -55 -1390 -11 -1434 35 -35 1877 -35 1912 0 47 47 33 1410 -15 1435 -52 28 -1838 28 -1886 -1z m1695 -448 c0 -39 -15 -40 -739 -45 -738 -5 -789 -1 -764 64 21 55 1503 37 1503 -19z m-1170 -200 c0 -20 -20 -30 -62 -30 -40 0 -58 -9 -53 -25 5 -14 30 -25 55 -25 26 -1 51 -12 55 -25 5 -16 -13 -25 -53 -25 -86 0 -83 -55 3 -64 94 -9 70 -46 -30 -46 l-85 0 -6 108 c-4 59 -2 120 4 135 15 39 172 37 172 -3z m170 -51 c52 -115 76 -120 59 -11 -11 77 -8 92 19 92 26 0 32 -25 32 -140 0 -172 -35 -187 -109 -45 l-49 95 -1 -95 c-1 -71 -9 -95 -31 -95 -24 0 -30 29 -30 140 0 171 48 197 110 59z m370 59 c0 -12 -18 -26 -40 -32 -34 -9 -40 -27 -40 -118 0 -83 -7 -108 -30 -108 -23 0 -30 25 -30 108 0 92 -6 109 -42 118 -23 6 -36 21 -29 33 18 28 211 28 211 -1z m215 -3 c-4 -14 -32 -28 -62 -31 -32 -4 -53 -19 -53 -37 0 -23 13 -28 50 -19 37 9 50 5 50 -18 0 -19 -19 -30 -50 -30 -31 0 -50 -11 -50 -30 0 -20 20 -30 60 -30 41 0 60 -10 60 -31 0 -24 -19 -30 -85 -25 l-85 6 -6 135 -6 135 93 0 c65 0 90 -7 84 -25z m241 1 c33 -33 30 -87 -5 -123 -26 -26 -26 -32 0 -53 16 -14 29 -37 29 -52 0 -46 -51 -32 -80 22 -15 28 -34 50 -43 50 -10 0 -17 -22 -17 -50 0 -31 -11 -50 -30 -50 -24 0 -30 29 -30 140 l0 140 76 0 c42 0 87 -11 100 -24z m-558 -643 c39 -42 40 -49 11 -61 -46 -17 -76 5 -49 38 17 20 13 32 -14 48 -20 11 -26 21 -14 21 11 1 41 -20 66 -46z"/> <path d="M7572 3408 c-7 -19 -6 -42 4 -52 26 -26 87 5 80 41 -9 45 -68 52 -84 11z"/> <path d="M2590 4087 c-36 -36 -39 -1367 -4 -1422 23 -35 1395 -36 1430 -1 47 47 33 1410 -15 1435 -72 39 -1372 28 -1411 -12z m903 -475 c61 -71 61 -162 1 -216 l-46 -41 56 -56 c191 -190 -172 -425 -382 -247 -81 68 -87 185 -14 258 42 42 45 51 18 73 -82 68 -65 213 31 268 89 50 278 29 336 -39z m-708 -597 c19 -19 24 -26 11 -15 -13 11 -44 20 -68 20 -35 0 -42 9 -34 40 9 32 16 36 33 15 13 -14 39 -41 58 -60z"/> <path d="M3235 3558 c-79 -46 -22 -158 81 -158 40 0 104 58 104 95 0 68 -112 106 -185 63z"/> <path d="M3213 3263 c-68 -75 -17 -163 94 -163 76 0 113 30 113 93 0 98 -139 145 -207 70z"/> <path d="M4381 2342 c-37 -68 -27 -1345 11 -1398 37 -53 1344 -71 1414 -19 32 23 34 85 29 735 l-5 710 -714 5 c-688 5 -715 4 -735 -33z m187 -645 c-22 -37 -64 -16 -61 32 3 44 6 46 38 17 19 -17 29 -39 23 -49z m1140 -380 c-20 -32 -73 -19 -60 16 7 17 2 47 -12 65 -14 17 -1 10 29 -16 30 -26 49 -56 43 -65z m-233 -217 c28 -22 41 -40 29 -40 -12 0 -27 9 -34 20 -7 11 -35 20 -62 20 -29 0 -45 9 -38 20 19 30 48 24 105 -20z"/> <path d="M2580 2341 c-35 -67 -25 -1339 12 -1396 l29 -45 676 0 c509 0 684 6 709 25 32 23 34 85 29 735 l-5 710 -714 5 c-696 5 -715 4 -736 -34z m856 -382 c166 -101 173 -470 12 -597 -120 -95 -319 -37 -380 111 -131 312 117 639 368 486z"/> <path d="M3229 1851 c-95 -95 -65 -396 42 -423 158 -40 238 306 98 427 -65 57 -79 56 -140 -4z"/> <path d="M6154 2367 c-39 -38 -15 -1425 25 -1446 60 -32 1843 -28 1887 4 32 23 34 85 29 735 l-5 710 -961 5 c-529 3 -968 -1 -975 -8z m1384 -714 c39 -42 40 -49 11 -61 -44 -16 -70 2 -55 41 6 17 -1 39 -16 49 -15 9 -18 18 -6 18 11 0 41 -21 66 -47z m-198 -161 c0 -15 20 -41 45 -58 l45 -31 -47 11 c-25 6 -52 26 -58 44 -7 17 -22 39 -34 47 -12 9 -7 15 14 15 19 0 35 -12 35 -28z m8 -151 c-6 -6 -20 6 -31 26 -15 26 -35 33 -69 24 -27 -7 -48 -3 -48 9 0 11 10 20 22 20 12 0 17 14 10 32 -7 17 19 2 57 -34 39 -36 65 -71 59 -77z"/> <path d="M813 2367 c-38 -39 -14 -1425 26 -1446 63 -34 1344 -28 1391 6 46 34 75 1329 32 1410 -23 43 -1407 71 -1449 30z m745 -534 c39 -42 40 -49 11 -61 -47 -18 -67 1 -54 51 9 35 5 41 -23 31 -20 -8 -29 -6 -22 6 19 31 39 24 88 -27z m-208 -273 c20 -22 27 -40 15 -40 -11 0 -26 14 -32 30 -9 22 -27 27 -66 18 -37 -10 -49 -7 -39 9 22 36 82 27 122 -17z m-350 -310 c38 -40 52 -45 78 -26 19 14 17 8 -5 -15 -36 -39 -37 -39 -67 6 -17 25 -48 45 -70 45 -21 0 -33 9 -26 20 19 31 39 24 90 -30z"/> <path d="M8427 5690 c-13 -35 4 -90 29 -90 10 0 17 14 17 30 0 17 -8 30 -19 30 -10 0 -8 14 6 30 18 22 18 30 2 30 -13 0 -28 -13 -35 -30z"/> </g> </svg> 